<svg width="18" height="19" viewBox="0 0 18 19" fill="none" xmlns="http://www.w3.org/2000/svg">
<path d="M8.25 13.25H9.75V10.25H12.75V8.75H9.75V5.75H8.25V8.75H5.25V10.25H8.25V13.25ZM9 17C7.9625 17 6.9875 16.8063 6.075 16.4188C5.1625 16.0188 4.36875 15.4812 3.69375 14.8062C3.01875 14.1312 2.48125 13.3375 2.08125 12.425C1.69375 11.5125 1.5 10.5375 1.5 9.5C1.5 8.4625 1.69375 7.4875 2.08125 6.575C2.48125 5.6625 3.01875 4.86875 3.69375 4.19375C4.36875 3.51875 5.1625 2.9875 6.075 2.6C6.9875 2.2 7.9625 2 9 2C10.0375 2 11.0125 2.2 11.925 2.6C12.8375 2.9875 13.6313 3.51875 14.3063 4.19375C14.9813 4.86875 15.5125 5.6625 15.9 6.575C16.3 7.4875 16.5 8.4625 16.5 9.5C16.5 10.5375 16.3 11.5125 15.9 12.425C15.5125 13.3375 14.9813 14.1312 14.3063 14.8062C13.6313 15.4812 12.8375 16.0188 11.925 16.4188C11.0125 16.8063 10.0375 17 9 17ZM9 15.5C10.675 15.5 12.0938 14.9187 13.2563 13.7562C14.4188 12.5937 15 11.175 15 9.5C15 7.825 14.4188 6.40625 13.2563 5.24375C12.0938 4.08125 10.675 3.5 9 3.5C7.325 3.5 5.90625 4.08125 4.74375 5.24375C3.58125 6.40625 3 7.825 3 9.5C3 11.175 3.58125 12.5937 4.74375 13.7562C5.90625 14.9187 7.325 15.5 9 15.5Z" fill="white"/>
</svg>
