<svg width="31" height="31" viewBox="0 0 31 31" fill="none" xmlns="http://www.w3.org/2000/svg">
<path d="M15.5001 15.5001C14.0792 15.5001 12.8629 14.9942 11.8511 13.9824C10.8393 12.9706 10.3334 11.7542 10.3334 10.3334C10.3334 8.91258 10.8393 7.69626 11.8511 6.68446C12.8629 5.67265 14.0792 5.16675 15.5001 5.16675C16.9209 5.16675 18.1372 5.67265 19.149 6.68446C20.1608 7.69626 20.6667 8.91258 20.6667 10.3334C20.6667 11.7542 20.1608 12.9706 19.149 13.9824C18.1372 14.9942 16.9209 15.5001 15.5001 15.5001ZM5.16675 25.8334V22.2167C5.16675 21.4848 5.35512 20.8121 5.73185 20.1985C6.10859 19.585 6.60911 19.1167 7.23341 18.7938C8.56814 18.1265 9.92439 17.6259 11.3022 17.2923C12.6799 16.9586 14.0792 16.7917 15.5001 16.7917C16.9209 16.7917 18.3202 16.9586 19.698 17.2923C21.0758 17.6259 22.432 18.1265 23.7668 18.7938C24.3911 19.1167 24.8916 19.585 25.2683 20.1985C25.645 20.8121 25.8334 21.4848 25.8334 22.2167V25.8334H5.16675ZM7.75008 23.2501H23.2501V22.2167C23.2501 21.9799 23.1909 21.7647 23.0725 21.5709C22.9541 21.3772 22.798 21.2265 22.6042 21.1188C21.4417 20.5376 20.2685 20.1016 19.0845 19.811C17.9004 19.5204 16.7056 19.3751 15.5001 19.3751C14.2945 19.3751 13.0997 19.5204 11.9157 19.811C10.7317 20.1016 9.55841 20.5376 8.39592 21.1188C8.20216 21.2265 8.04609 21.3772 7.92769 21.5709C7.80928 21.7647 7.75008 21.9799 7.75008 22.2167V23.2501ZM15.5001 12.9167C16.2105 12.9167 16.8187 12.6638 17.3246 12.1579C17.8305 11.652 18.0834 11.0438 18.0834 10.3334C18.0834 9.623 17.8305 9.01484 17.3246 8.50894C16.8187 8.00303 16.2105 7.75008 15.5001 7.75008C14.7897 7.75008 14.1815 8.00303 13.6756 8.50894C13.1697 9.01484 12.9167 9.623 12.9167 10.3334C12.9167 11.0438 13.1697 11.652 13.6756 12.1579C14.1815 12.6638 14.7897 12.9167 15.5001 12.9167Z" fill="#1D1B20"/>
</svg>
